<svg width="94" height="46" viewBox="0 0 94 46" fill="none" xmlns="http://www.w3.org/2000/svg">
<path d="M70.9879 0.0314941H28.8181C27.8611 0.0314941 27.4507 1.24652 28.2118 1.82675L35.8591 7.65684C36.4852 8.13421 36.3397 9.11442 35.6018 9.38922L1.50131 22.0888C0.635123 22.4113 0.632717 23.6356 1.49763 23.9616L35.85 36.9089C36.5939 37.1892 36.729 38.1836 36.0869 38.6523L28.4959 44.1934C27.7144 44.7638 28.1178 46.0009 29.0853 46.0011L70.9879 46.0091C83.6973 46.0091 94 35.7135 94 23.0203C94 10.327 83.6973 0.0314941 70.9879 0.0314941ZM70.9879 40.8837C61.1114 40.885 53.1064 32.8868 53.1064 23.0203C53.1064 13.1537 61.1114 5.15551 70.9879 5.15551C80.8645 5.15551 88.8708 13.1537 88.8708 23.0203C88.8708 32.8868 80.8645 40.885 70.9879 40.885V40.8837Z" fill="white"/>
</svg>
