<svg width="95" height="46" viewBox="0 0 95 46" fill="none" xmlns="http://www.w3.org/2000/svg">
<g clip-path="url(#clip0_0_319)">
<path d="M68.244 34.2357H64.1322V21.6118C64.1322 21.6118 68.2447 21.8804 68.2447 24.3177L68.244 34.2357Z" fill="white"/>
<path d="M64.3646 9.30786H74.4064C77.2577 9.30786 82.3869 10.2774 82.3869 17.0632C82.3869 23.9876 75.7329 24.2648 75.7329 24.2648L82.0189 34.2356H77.8635L72.4073 25.6494V21.6117C72.4073 21.6117 78.3682 22.4644 78.3682 16.9259C78.3682 12.7681 74.2062 12.7681 74.2062 12.7681L66.443 12.4916C66.443 12.4916 64.3646 11.9392 64.3646 9.30786Z" fill="white"/>
<path d="M71.9879 0.0314941H29.8181C28.8611 0.0314941 28.4507 1.24652 29.2118 1.82675L36.8591 7.65684C37.4852 8.13421 37.3397 9.11442 36.6018 9.38922L2.50131 22.0888C1.63512 22.4113 1.63272 23.6356 2.49763 23.9616L36.85 36.9089C37.5939 37.1892 37.729 38.1836 37.0869 38.6523L29.4959 44.1934C28.7144 44.7638 29.1178 46.0009 30.0853 46.0011L71.9879 46.0091C84.6973 46.0091 95 35.7135 95 23.0203C95 10.327 84.6973 0.0314941 71.9879 0.0314941ZM71.9879 40.8837C62.1114 40.885 54.1064 32.8868 54.1064 23.0203C54.1064 13.1537 62.1114 5.15551 71.9879 5.15551C81.8645 5.15551 89.8708 13.1537 89.8708 23.0203C89.8708 32.8868 81.8645 40.885 71.9879 40.885V40.8837Z" fill="white"/>
</g>
<defs>
<clipPath id="clip0_0_319">
<rect width="95" height="46" rx="16" fill="white"/>
</clipPath>
</defs>
</svg>
