<svg width="76" height="24" viewBox="0 0 76 24" fill="none" xmlns="http://www.w3.org/2000/svg">
<path d="M56 8H72" stroke="white" stroke-width="2"/>
<path d="M56 16H72" stroke="white" stroke-width="2"/>
<path d="M12.6 17L12.584 5.8H11.272L6.664 13.672L1.992 5.8H0.68V17H2.216V8.888L6.264 15.64H7L11.048 8.84L11.064 17H12.6ZM23.4013 12.808C23.4013 10.2 21.6573 8.44 19.2093 8.44C16.7613 8.44 14.9533 10.248 14.9533 12.76C14.9533 15.288 16.7773 17.096 19.5133 17.096C20.9213 17.096 22.0893 16.616 22.8573 15.72L22.0093 14.728C21.3853 15.416 20.5533 15.752 19.5613 15.752C17.8813 15.752 16.6813 14.76 16.4893 13.272H23.3693C23.3853 13.128 23.4013 12.936 23.4013 12.808ZM19.2093 9.736C20.6973 9.736 21.7693 10.744 21.9293 12.168H16.4893C16.6493 10.728 17.7373 9.736 19.2093 9.736ZM30.0621 8.44C28.7181 8.44 27.6301 8.936 27.0061 9.8V8.52H25.5341V17H27.0701V12.632C27.0701 10.792 28.1261 9.816 29.7581 9.816C31.2141 9.816 32.0461 10.632 32.0461 12.296V17H33.5821V12.12C33.5821 9.624 32.1261 8.44 30.0621 8.44ZM42.7928 8.52V12.904C42.7928 14.728 41.7688 15.72 40.1688 15.72C38.7128 15.72 37.8808 14.888 37.8808 13.224V8.52H36.3448V13.4C36.3448 15.896 37.8008 17.096 39.9928 17.096C41.1928 17.096 42.2488 16.6 42.8728 15.72V17H44.3288V8.52H42.7928Z" fill="white"/>
</svg>
