<svg width="236" height="61" viewBox="0 0 236 61" fill="none" xmlns="http://www.w3.org/2000/svg">
<path d="M15.0515 35.1229V40.7529C14.5464 40.6582 14.089 40.6104 13.6794 40.6104C11.3772 40.6104 9.57929 41.2811 8.28652 42.6208C6.99297 43.9621 6.34696 45.8932 6.34696 48.4164V60.6689H0.433594V35.407H6.06285V39.0967C7.76601 36.4472 10.762 35.1229 15.0515 35.1229Z" fill="white"/>
<path d="M43.4832 49.9302H23.6619C24.0084 51.7912 24.9154 53.2649 26.3822 54.3536C27.8482 55.4416 29.67 55.9852 31.8459 55.9852C34.6209 55.9852 36.9077 55.0712 38.7056 53.2418L41.8748 56.8845C40.7398 58.2405 39.3038 59.266 37.5699 59.959C35.8351 60.6535 33.8802 61 31.7042 61C28.9285 61 26.4838 60.4487 24.371 59.3438C22.2582 58.2404 20.6259 56.7028 19.4748 54.7317C18.3237 52.7613 17.7485 50.5292 17.7485 48.0376C17.7485 45.5775 18.3075 43.3623 19.4278 41.3912C20.5466 39.4208 22.1004 37.8832 24.0877 36.7791C26.0742 35.6749 28.3133 35.1229 30.8049 35.1229C33.265 35.1229 35.4648 35.6672 37.4043 36.7552C39.3439 37.8432 40.8576 39.3731 41.9456 41.3442C43.0336 43.3153 43.5779 45.5944 43.5779 48.18C43.5779 48.5896 43.5463 49.1733 43.4832 49.9302ZM26.0034 41.5329C24.6944 42.6532 23.8983 44.1431 23.6142 46.0033H37.9487C37.6953 44.1746 36.9231 42.6924 35.6303 41.5567C34.3367 40.421 32.7283 39.8536 30.8049 39.8536C28.9131 39.8536 27.3115 40.4141 26.0034 41.5329Z" fill="white"/>
<path d="M64.6288 60.6689L58.1472 51.9167L51.6194 60.6689H45.0908L54.9303 47.8489L45.5166 35.407H52.0922L58.2896 43.6857L64.4863 35.407H70.8732L61.4119 47.7542L71.299 60.6689H64.6288V60.6689Z" fill="white"/>
<path d="M108.861 60.6689L108.814 32.3317L94.953 56.2693H93.7703L79.9093 32.4264V60.6689H77.5439V27.5541H79.5782L94.3847 53.1471L109.192 27.5541H111.179L111.226 60.6689H108.861Z" fill="white"/>
<path d="M137.387 38.1273C139.026 39.688 139.847 41.9825 139.847 45.01V60.6689H137.575V56.2693C136.787 57.7199 135.636 58.8472 134.122 59.6518C132.608 60.4556 130.794 60.8583 128.682 60.8583C125.938 60.8583 123.77 60.2115 122.177 58.918C120.584 57.6252 119.788 55.9228 119.788 53.8092C119.788 51.7596 120.521 50.0957 121.988 48.8183C123.455 47.5409 125.796 46.9026 129.013 46.9026H137.481V44.9153C137.481 42.6139 136.858 40.8637 135.612 39.6641C134.366 38.466 132.545 37.867 130.148 37.867C128.508 37.867 126.939 38.1504 125.441 38.7186C123.943 39.2861 122.674 40.0429 121.633 40.9892L120.45 39.2861C121.681 38.1827 123.162 37.3226 124.897 36.7074C126.632 36.093 128.445 35.785 130.337 35.785C133.397 35.785 135.746 36.5658 137.387 38.1273ZM134.24 57.4989C135.675 56.5526 136.755 55.1813 137.481 53.3835V48.7475H129.06C126.632 48.7475 124.874 49.1894 123.786 50.0718C122.698 50.955 122.153 52.17 122.153 53.7145C122.153 55.323 122.752 56.5927 123.951 57.5228C125.149 58.4537 126.837 58.918 129.013 58.918C131.063 58.918 132.805 58.4452 134.24 57.4989Z" fill="white"/>
<path d="M155.41 37.228C157.018 36.2663 158.973 35.785 161.276 35.785V38.1034L160.708 38.0557C157.965 38.0557 155.82 38.9157 154.274 40.6343C152.729 42.3536 151.957 44.7429 151.957 47.8012V60.6689H149.591V35.9744H151.862V41.3673C152.619 39.5702 153.802 38.1904 155.41 37.228Z" fill="white"/>
<path d="M176.603 47.4701L170.17 53.3365V60.6689H167.805V25.5668H170.17V50.4029L185.971 35.9745H188.998L178.354 45.9563L190.038 60.6689H187.106L176.603 47.4701Z" fill="white"/>
<path d="M215.491 48.8891H194.25C194.313 50.8133 194.801 52.5242 195.717 54.0218C196.63 55.5201 197.869 56.6797 199.43 57.499C200.991 58.3197 202.749 58.7294 204.704 58.7294C206.313 58.7294 207.804 58.4375 209.175 57.8539C210.547 57.271 211.69 56.411 212.605 55.2761L213.977 56.8368C212.905 58.1303 211.556 59.1236 209.932 59.8173C208.307 60.5111 206.55 60.8583 204.657 60.8583C202.197 60.8583 200.005 60.3224 198.082 59.2499C196.158 58.1781 194.652 56.6951 193.564 54.8025C192.476 52.9107 191.932 50.7502 191.932 48.3217C191.932 45.9255 192.444 43.7727 193.469 41.8639C194.494 39.9567 195.906 38.4661 197.703 37.3935C199.501 36.3217 201.519 35.785 203.759 35.785C205.997 35.785 208.008 36.314 209.79 37.3704C211.572 38.4268 212.975 39.9013 214 41.7931C215.025 43.6857 215.538 45.8308 215.538 48.227L215.491 48.8891ZM199.075 39.0258C197.687 39.7989 196.575 40.8868 195.74 42.2897C194.904 43.6934 194.423 45.2788 194.297 47.0443H213.22C213.126 45.2787 212.652 43.7018 211.8 42.3136C210.949 40.9261 209.829 39.8381 208.442 39.0497C207.054 38.2612 205.493 37.867 203.759 37.867C202.023 37.867 200.463 38.2536 199.075 39.0258Z" fill="white"/>
<path d="M235.123 59.1074C234.523 59.6757 233.775 60.1092 232.875 60.4087C231.977 60.7082 231.038 60.8583 230.061 60.8583C227.916 60.8583 226.26 60.267 225.093 59.0843C223.926 57.9017 223.343 56.2539 223.343 54.1404V38.0087H218.802V35.9745H223.343V30.5816H225.708V35.9745H233.561V38.0087H225.708V53.904C225.708 55.5124 226.094 56.7352 226.867 57.5698C227.64 58.406 228.784 58.8241 230.297 58.8241C231.842 58.8241 233.119 58.3667 234.129 57.452L235.123 59.1074Z" fill="white"/>
<path d="M61.3482 21.0261H58.9292V13.5917C58.9292 13.5917 61.3486 13.7499 61.3486 15.1852L61.3482 21.0261Z" fill="white"/>
<path d="M59.0654 6.34583H64.9731C66.6506 6.34583 69.6682 6.91677 69.6682 10.913C69.6682 14.9909 65.7536 15.1541 65.7536 15.1541L69.4517 21.0261H67.007L63.797 15.9695V13.5917C63.797 13.5917 67.3039 14.0938 67.3039 10.8322C67.3039 8.3836 64.8554 8.3836 64.8554 8.3836L60.2882 8.22074C60.2882 8.22074 59.0654 7.89543 59.0654 6.34583Z" fill="white"/>
<path d="M9.11794 22.3479H2.4831C1.10993 22.3479 0 23.4604 0 24.8311C0 26.2018 1.10993 27.3141 2.4831 27.3141H9.11794C12.0381 27.3141 14.6776 26.0329 16.6716 23.9893C15.5243 22.7502 14.5212 21.3622 13.7142 19.8624C12.5769 21.3771 10.9455 22.3479 9.11794 22.3479Z" fill="white"/>
<path d="M28.5706 22.348C25.1116 22.348 20.878 18.7375 19.5098 14.623L18.3377 11.1218C16.2271 4.77999 11.1963 0 6.63483 0H2.4831C1.10993 0 0 1.1124 0 2.4831C0 3.85377 1.10993 4.96621 2.4831 4.96621H6.63483C8.47978 4.96621 12.0331 7.90619 13.6248 12.6887L14.7968 16.1923C16.8727 22.4299 22.924 27.3142 28.5706 27.3142H35.4821L41.5937 22.348H28.5706V22.348Z" fill="white"/>
<path d="M27.3291 4.96621H41.4239L35.1709 0H27.3291C23.51 0 20.1404 1.88961 17.9404 4.77501C19.0901 6.47844 20.0113 8.33827 20.647 10.2006C21.5434 7.17867 24.1805 4.96621 27.3291 4.96621Z" fill="white"/>
<path d="M63.6448 0.0838206L37.2479 0.0276489L43.7977 5.18779L21.5234 13.5154L44.0452 22.0369L37.519 27.3142L63.6448 26.9392C71.0608 26.9392 77.0725 20.9274 77.0725 13.5115C77.0725 5.48081 69.6773 0.0276436 63.6448 0.0838206ZM63.6448 23.986C57.86 23.986 53.1704 19.2964 53.1704 13.5115C53.1704 7.72666 57.86 3.03707 63.6448 3.03707C69.4297 3.03707 74.1193 7.72666 74.1193 13.5115C74.1193 19.2964 69.4297 23.986 63.6448 23.986Z" fill="white"/>
</svg>
