<svg width="238" height="57" viewBox="0 0 238 57" fill="none" xmlns="http://www.w3.org/2000/svg">
<path d="M26.3475 18.6914H24.6954V13.614C24.6954 13.614 26.3478 13.722 26.3478 14.7023L26.3475 18.6914Z" fill="white"/>
<path d="M24.7881 8.66528H28.8229C29.9686 8.66528 32.0295 9.05522 32.0295 11.7845C32.0295 14.5696 29.3559 14.6811 29.3559 14.6811L31.8816 18.6914H30.212L28.0197 15.238V13.614C28.0197 13.614 30.4148 13.9569 30.4148 11.7293C30.4148 10.057 28.7425 10.057 28.7425 10.057L25.6232 9.94579C25.6232 9.94579 24.7881 9.72361 24.7881 8.66528Z" fill="white"/>
<path d="M23.9631 5.50743L7.7744 13.4412L13.3447 14.6254L2.21246 26.451L18.5824 24.8731L16.1772 30.0761L32.0697 21.96C36.6129 19.7214 38.4812 14.2237 36.2426 9.68041C33.8185 4.76052 27.6418 3.65203 23.9631 5.50743ZM31.1782 20.1507C27.6342 21.897 23.3456 20.4396 21.5993 16.8956C19.8531 13.3515 21.3105 9.06293 24.8545 7.3167C28.3985 5.57047 32.6871 7.02786 34.4334 10.5719C36.1796 14.1159 34.7222 18.4045 31.1782 20.1507Z" fill="white"/>
<path d="M48.262 3.68824C49.4198 6.11259 48.5326 9.03668 48.5506 9.00642C52.9802 2.72115 52.4296 -0.3133 43.5352 0.0255427C43.7893 0.0990446 47.176 1.4144 48.262 3.68824Z" fill="white"/>
<path d="M40.1824 0.259521C35.221 0.719289 30.7168 2.2995 27.5801 3.68425C31.2604 3.3886 35.5418 5.04276 37.5138 9.04493C39.2663 12.6016 38.6752 16.7011 36.3393 19.5965C39.557 17.7776 43.5235 15.0456 46.7725 11.3056C47.6423 8.57155 47.6632 6.33134 46.8282 4.60664C45.7314 2.34063 43.1771 1.04889 40.1824 0.259521Z" fill="white"/>
<path d="M6.45007 33.3842V30.8812H2.63137V48.0172H6.64261V39.7059C6.64261 36.2081 8.568 34.411 11.6165 34.411C11.9053 34.411 12.1942 34.4431 12.5471 34.5073V30.6886C9.69115 30.6886 7.6053 31.5871 6.45007 33.3842ZM31.9024 39.5454C31.9024 34.1864 28.2441 30.6886 23.2381 30.6886C18.1358 30.6886 14.3813 34.3469 14.3813 39.4492C14.3813 44.5514 18.1037 48.2418 23.8478 48.2418C26.8001 48.2418 29.2068 47.2791 30.7471 45.45L28.5971 42.979C27.3777 44.2305 25.8695 44.8403 23.9441 44.8403C20.9597 44.8403 18.8739 43.2358 18.3925 40.7327H31.8382C31.8703 40.3477 31.9024 39.8663 31.9024 39.5454ZM23.2381 33.8976C25.8695 33.8976 27.7628 35.5984 28.0837 38.0693H18.3604C18.7455 35.5663 20.6388 33.8976 23.2381 33.8976ZM50.7206 48.0172L44.0138 39.2566L50.4318 30.8812H46.0996L41.8959 36.4969L37.6921 30.8812H33.2316L39.6175 39.3208L32.9428 48.0172H37.3712L41.7996 42.0805L46.1959 48.0172H50.7206ZM54.0657 48.0172H69.9823V44.4873H58.2374V25.5542H54.0657V48.0172ZM79.5937 30.6886C76.834 30.6886 74.1705 31.3946 72.3414 32.8065L73.9138 35.7267C75.1974 34.6678 77.187 34.026 79.1123 34.026C81.9683 34.026 83.3803 35.4058 83.3803 37.7484V38.0051H78.9519C73.7533 38.0051 71.8279 40.2514 71.8279 43.1074C71.8279 46.0918 74.2989 48.2418 78.2138 48.2418C80.781 48.2418 82.6422 47.4074 83.6049 45.9313V48.0172H87.3915V37.973C87.3915 33.0312 84.5355 30.6886 79.5937 30.6886ZM79.0482 45.3216C76.9944 45.3216 75.775 44.391 75.775 42.9469C75.775 41.6954 76.5131 40.6686 79.2407 40.6686H83.3803V42.6581C82.7064 44.4231 81.0056 45.3216 79.0482 45.3216ZM105.119 30.8812V39.5454C105.119 42.979 103.225 44.7119 100.434 44.7119C97.8985 44.7119 96.4223 43.2358 96.4223 40.123V30.8812H92.4111V40.6686C92.4111 45.835 95.3955 48.2418 99.7918 48.2418C102.006 48.2418 104.028 47.4074 105.311 45.835V48.0172H109.13V30.8812H105.119ZM124.105 30.6886C121.602 30.6886 119.516 31.5229 118.201 33.0954V30.8812H114.382V48.0172H118.393V39.3529C118.393 35.9193 120.319 34.1864 123.175 34.1864C125.742 34.1864 127.25 35.6625 127.25 38.7111V48.0172H131.261V38.1976C131.261 33.0312 128.213 30.6886 124.105 30.6886ZM144.368 48.2418C147.706 48.2418 150.369 46.7977 151.685 44.2305L148.604 42.4335C147.577 44.0701 146.037 44.8082 144.336 44.8082C141.384 44.8082 139.138 42.7865 139.138 39.4492C139.138 36.1439 141.384 34.0901 144.336 34.0901C146.037 34.0901 147.577 34.8282 148.604 36.4648L151.685 34.6678C150.369 32.0685 147.706 30.6886 144.368 30.6886C138.945 30.6886 135.094 34.3148 135.094 39.4492C135.094 44.5835 138.945 48.2418 144.368 48.2418ZM164.719 30.6886C162.344 30.6886 160.323 31.4588 159.007 32.8707V24.2065H154.996V48.0172H159.007V39.3529C159.007 35.9193 160.932 34.1864 163.788 34.1864C166.355 34.1864 167.864 35.6625 167.864 38.7111V48.0172H171.875V38.1976C171.875 33.0312 168.826 30.6886 164.719 30.6886ZM186.462 30.6886C184.119 30.6886 182.13 31.4909 180.782 33.1274V30.8812H176.963V54.2426H180.975V45.9313C182.355 47.5037 184.28 48.2418 186.462 48.2418C191.468 48.2418 195.158 44.7761 195.158 39.4492C195.158 34.1543 191.468 30.6886 186.462 30.6886ZM186.013 44.8082C183.125 44.8082 180.91 42.7223 180.91 39.4492C180.91 36.176 183.125 34.0901 186.013 34.0901C188.901 34.0901 191.083 36.176 191.083 39.4492C191.083 42.7223 188.901 44.8082 186.013 44.8082ZM205.29 30.6886C202.53 30.6886 199.866 31.3946 198.037 32.8065L199.61 35.7267C200.893 34.6678 202.883 34.026 204.808 34.026C207.664 34.026 209.076 35.4058 209.076 37.7484V38.0051H204.648C199.449 38.0051 197.524 40.2514 197.524 43.1074C197.524 46.0918 199.995 48.2418 203.91 48.2418C206.477 48.2418 208.338 47.4074 209.301 45.9313V48.0172H213.087V37.973C213.087 33.0312 210.231 30.6886 205.29 30.6886ZM204.744 45.3216C202.69 45.3216 201.471 44.391 201.471 42.9469C201.471 41.6954 202.209 40.6686 204.937 40.6686H209.076V42.6581C208.402 44.4231 206.701 45.3216 204.744 45.3216ZM231.164 24.2065V32.9991C229.816 31.4267 227.858 30.6886 225.644 30.6886C220.67 30.6886 216.98 34.1222 216.98 39.4492C216.98 44.7761 220.67 48.2418 225.644 48.2418C227.987 48.2418 229.976 47.4395 231.324 45.8029V48.0172H235.175V24.2065H231.164ZM226.126 44.8082C223.238 44.8082 221.023 42.7223 221.023 39.4492C221.023 36.176 223.238 34.0901 226.126 34.0901C229.014 34.0901 231.228 36.176 231.228 39.4492C231.228 42.7223 229.014 44.8082 226.126 44.8082Z" fill="white"/>
</svg>
