<svg width="117" height="67" viewBox="0 0 117 67" fill="none" xmlns="http://www.w3.org/2000/svg">
<path d="M13.1478 43.726V48.7891C12.6935 48.7039 12.2821 48.6617 11.9137 48.6617C9.843 48.6617 8.22594 49.2642 7.06318 50.4699C5.89972 51.6756 5.31868 53.4131 5.31868 55.6819V66.7022H0V43.9808H5.06313V47.3001C6.59502 44.9171 9.28967 43.726 13.1478 43.726Z" fill="white"/>
<path d="M38.7203 57.0434H20.8924C21.204 58.718 22.0198 60.0435 23.3391 61.022C24.6577 62.0006 26.2963 62.4902 28.2534 62.4902C30.7493 62.4902 32.8061 61.6675 34.4232 60.022L37.2736 63.2984C36.2528 64.5186 34.9613 65.4404 33.4017 66.0644C31.8414 66.6884 30.083 67 28.1259 67C25.6293 67 23.4305 66.5041 21.5302 65.5111C19.6299 64.5187 18.1617 63.1357 17.1264 61.3628C16.0911 59.5899 15.5737 57.5829 15.5737 55.3419C15.5737 53.1292 16.0765 51.1368 17.0842 49.3632C18.0904 47.591 19.4879 46.208 21.2754 45.2149C23.0621 44.2225 25.076 43.726 27.3171 43.726C29.5297 43.726 31.5083 44.2149 33.2528 45.1935C34.9973 46.172 36.3588 47.5488 37.3374 49.321C38.3159 51.0939 38.8055 53.1438 38.8055 55.4693C38.8055 55.8384 38.7771 56.3627 38.7203 57.0434ZM22.9984 49.4913C21.8211 50.4983 21.105 51.839 20.8495 53.5122H33.7424C33.5145 51.8674 32.8199 50.5336 31.6572 49.5121C30.4937 48.4913 29.047 47.9809 27.317 47.9809C25.6155 47.9809 24.175 48.4844 22.9984 49.4913Z" fill="white"/>
<path d="M57.7396 66.7022L51.9098 58.8308L46.0385 66.7022H40.1665L49.0164 55.1715L40.5495 43.9808H46.4637L52.0379 51.4269L57.6115 43.9808H63.3561L54.8462 55.0863L63.739 66.7022H57.7396Z" fill="white"/>
<path d="M69.3555 36.9176H71.5252V64.7451H88.6724V66.7022H69.3555V36.9176Z" fill="white"/>
<path d="M113.733 39.577C115.861 41.3506 116.925 43.8111 116.925 46.9594C116.925 50.08 115.861 52.5267 113.733 54.2989C111.606 56.0725 108.67 56.9582 104.926 56.9582H96.4158V66.7022H94.2461V36.9176H104.926C108.67 36.9176 111.606 37.8048 113.733 39.577ZM112.201 52.9166C113.875 51.5267 114.712 49.5412 114.712 46.9594C114.712 44.3783 113.875 42.3852 112.201 40.9814C110.528 39.577 108.102 38.8748 104.926 38.8748H96.4158V55.0011H104.926C108.102 55.0011 110.528 54.3065 112.201 52.9166Z" fill="white"/>
<path d="M26.388 29.959V25.4668H14.4087V22.472H26.388V17.9798L33.875 23.9694L26.388 29.959Z" fill="white"/>
<path d="M37.6203 13.4767H49.5996V16.4715H37.6203V20.9637L30.1333 14.9741L37.6203 8.98444V13.4767Z" fill="white"/>
<path d="M15.9062 38.9435C7.63603 38.9435 0.932129 32.2396 0.932129 23.9694C0.932129 15.6992 7.63604 8.9953 15.9062 8.9953C20.6203 8.99175 25.0599 11.2116 27.8855 14.9849H23.8275C18.8652 10.6093 11.2952 11.0849 6.9196 16.0472C2.54397 21.0096 3.01958 28.5795 7.98192 32.9552C12.51 36.9479 19.3016 36.9473 23.829 32.9538H27.887C25.0611 36.7276 20.6208 38.9475 15.9062 38.9435Z" fill="white"/>
<path d="M36.123 23.9585H40.178C45.14 28.3346 52.7099 27.8596 57.086 22.8976C61.462 17.9357 60.987 10.3657 56.0251 5.98964C51.4973 1.99655 44.7057 1.99655 40.178 5.98964H36.123C38.9486 2.21628 43.3882 -0.00354154 48.1023 4.24139e-06C56.3725 4.24139e-06 63.0764 6.70391 63.0764 14.9741C63.0764 23.2443 56.3725 29.9482 48.1023 29.9482C43.3882 29.9517 38.9486 27.7319 36.123 23.9585Z" fill="white"/>
</svg>
